<svg viewBox="20 20 640 640" width="640" height="640" xmlns="http://www.w3.org/2000/svg" role="img">
<title>AeroNUK favicon</title>
<desc>Circular dark navy badge with a stylized white A lettermark and symmetric blue wings on both sides</desc>

<defs>
  <clipPath id="circle-clip">
    <circle cx="340" cy="340" r="320"/>
  </clipPath>
</defs>

<circle cx="340" cy="340" r="320" fill="#0B1E3D"/>

<g clip-path="url(#circle-clip)">
  <circle cx="340" cy="340" r="320" fill="#0B1E3D"/>
  <circle cx="340" cy="340" r="308" fill="none" stroke="#1A3561" stroke-width="1.5"/>

  <path d="M 340 130 L 490 530 L 442 530 L 340 260 L 238 530 L 190 530 Z"
        fill="#FFFFFF"/>

  <path d="M 260 430 L 420 430 L 407 395 L 273 395 Z"
        fill="#0B1E3D"/>

  <path d="M 420 470 L 560 390 Q 600 372 612 368 Q 630 362 628 374 Q 626 382 610 392 L 490 462 Z"
        fill="#3B9EFF"/>
  <path d="M 420 470 L 490 462 L 490 478 L 420 484 Z"
        fill="#2180E0"/>

  <path d="M 260 470 L 120 390 Q 80 372 68 368 Q 50 362 52 374 Q 54 382 70 392 L 190 462 Z"
        fill="#3B9EFF"/>
  <path d="M 260 470 L 190 462 L 190 478 L 260 484 Z"
        fill="#2180E0"/>
</g>
</svg>
